<svg xmlns="http://www.w3.org/2000/svg" viewBox="0 0 24 24" width="24" height="24" fill="none" stroke="currentColor" stroke-width="2" stroke-linecap="round" stroke-linejoin="round" role="img" aria-label="extension"><title>extension</title><path d="M5 8.4 C6.6 8.3 8.2 8.4 9.4 8.3 C9 7.8 8.8 7.2 8.8 6.6 C8.8 5.2 9.9 4.2 11.2 4.2 C12.6 4.2 13.6 5.2 13.6 6.6 C13.6 7.2 13.4 7.8 13 8.3 C14.6 8.4 16.2 8.3 17.6 8.4 C17.7 9.8 17.6 11.4 17.7 12.8 C18.2 12.4 18.8 12.2 19.4 12.2 C20.7 12.2 21.6 13.3 21.6 14.6 C21.6 15.9 20.7 17 19.4 17 C18.8 17 18.2 16.8 17.7 16.4 C17.6 17.6 17.7 18.8 17.6 19.8 C13.4 19.9 9.2 19.8 5 19.8 C4.9 16 5 12.2 5 8.9"/></svg>
