<svg xmlns="http://www.w3.org/2000/svg" viewBox="0 0 100 100" width="100" height="100" role="img" aria-label="Keyrook Authenticator"><title>Keyrook Authenticator</title><path d="M50.32 34.6 C48.58 26.45 48.31 18.25 49.5 10" fill="none" stroke="#3A6FDB" stroke-width="11" stroke-linecap="round" stroke-linejoin="round"/><path d="M59.98 39.48 C67.36 35.03 73.56 29.3 78.58 22.3" fill="none" stroke="#F2B21B" stroke-width="11" stroke-linecap="round" stroke-linejoin="round"/><path d="M65.3 49.79 C73.2 51.57 81.13 51.75 89.1 50.33" fill="none" stroke="#E0493A" stroke-width="11" stroke-linecap="round" stroke-linejoin="round"/><path d="M60.44 61.04 C67.47 65.67 73.6 71.28 78.83 77.88" fill="none" stroke="#2FA05A" stroke-width="11" stroke-linecap="round" stroke-linejoin="round"/><path d="M50.26 64.7 C48.63 72.86 48.41 81.06 49.59 89.3" fill="none" stroke="#3A6FDB" stroke-width="11" stroke-linecap="round" stroke-linejoin="round"/><path d="M38.83 60.75 C34.47 67.82 28.9 73.75 22.11 78.54" fill="none" stroke="#F2B21B" stroke-width="11" stroke-linecap="round" stroke-linejoin="round"/><path d="M35.2 49.77 C26.91 51.5 18.57 51.71 10.2 50.38" fill="none" stroke="#E0493A" stroke-width="11" stroke-linecap="round" stroke-linejoin="round"/><path d="M38.87 39.36 C34.59 32.59 29.23 26.82 22.8 22.05" fill="none" stroke="#2FA05A" stroke-width="11" stroke-linecap="round" stroke-linejoin="round"/></svg>
